<svg width="157" height="43" viewBox="0 0 494 92" fill="none" xmlns="http://www.w3.org/2000/svg">
<path d="M46.343 0L0 45.764L46.343 91.527L56.77 81.1L21.723 46.053L57.059 10.717L46.343 0Z" fill="#E6E6E6"/>
<path d="M446.717 0L493.059 45.764L446.717 91.527L436.29 81.1L471.336 46.053L436 10.717L446.717 0Z" fill="#E6E6E6"/>
<path d="M71.343 0L25 45.764L71.343 91.527L81.77 81.1L46.723 46.053L82.059 10.717L71.343 0Z" fill="#6C63FF"/>
<path d="M423.717 0L470.059 45.764L423.717 91.527L413.29 81.1L448.336 46.053L413 10.717L423.717 0Z" fill="#6C63FF"/>
<path d="M109.062 22.5L120.75 55.5L132.375 22.5H144.688V68H135.281V55.5625L136.219 34.0938L123.938 68H117.5L105.25 34.125L106.188 55.5625V68H96.8125V22.5H109.062ZM171.875 68C171.458 67.1875 171.156 66.1771 170.969 64.9688C168.781 67.4062 165.938 68.625 162.438 68.625C159.125 68.625 156.375 67.6667 154.188 65.75C152.021 63.8333 150.938 61.4167 150.938 58.5C150.938 54.9167 152.26 52.1667 154.906 50.25C157.573 48.3333 161.417 47.3646 166.438 47.3438H170.594V45.4062C170.594 43.8438 170.188 42.5938 169.375 41.6562C168.583 40.7188 167.323 40.25 165.594 40.25C164.073 40.25 162.875 40.6146 162 41.3438C161.146 42.0729 160.719 43.0729 160.719 44.3438H151.688C151.688 42.3854 152.292 40.5729 153.5 38.9062C154.708 37.2396 156.417 35.9375 158.625 35C160.833 34.0417 163.312 33.5625 166.062 33.5625C170.229 33.5625 173.531 34.6146 175.969 36.7188C178.427 38.8021 179.656 41.7396 179.656 45.5312V60.1875C179.677 63.3958 180.125 65.8229 181 67.4688V68H171.875ZM164.406 61.7188C165.74 61.7188 166.969 61.4271 168.094 60.8438C169.219 60.2396 170.052 59.4375 170.594 58.4375V52.625H167.219C162.698 52.625 160.292 54.1875 160 57.3125L159.969 57.8438C159.969 58.9688 160.365 59.8958 161.156 60.625C161.948 61.3542 163.031 61.7188 164.406 61.7188ZM206.188 68C205.771 67.1875 205.469 66.1771 205.281 64.9688C203.094 67.4062 200.25 68.625 196.75 68.625C193.438 68.625 190.688 67.6667 188.5 65.75C186.333 63.8333 185.25 61.4167 185.25 58.5C185.25 54.9167 186.573 52.1667 189.219 50.25C191.885 48.3333 195.729 47.3646 200.75 47.3438H204.906V45.4062C204.906 43.8438 204.5 42.5938 203.688 41.6562C202.896 40.7188 201.635 40.25 199.906 40.25C198.385 40.25 197.188 40.6146 196.312 41.3438C195.458 42.0729 195.031 43.0729 195.031 44.3438H186C186 42.3854 186.604 40.5729 187.812 38.9062C189.021 37.2396 190.729 35.9375 192.938 35C195.146 34.0417 197.625 33.5625 200.375 33.5625C204.542 33.5625 207.844 34.6146 210.281 36.7188C212.74 38.8021 213.969 41.7396 213.969 45.5312V60.1875C213.99 63.3958 214.438 65.8229 215.312 67.4688V68H206.188ZM198.719 61.7188C200.052 61.7188 201.281 61.4271 202.406 60.8438C203.531 60.2396 204.365 59.4375 204.906 58.4375V52.625H201.531C197.01 52.625 194.604 54.1875 194.312 57.3125L194.281 57.8438C194.281 58.9688 194.677 59.8958 195.469 60.625C196.26 61.3542 197.344 61.7188 198.719 61.7188ZM219.5 50.8438C219.5 45.5729 220.677 41.375 223.031 38.25C225.406 35.125 228.646 33.5625 232.75 33.5625C236.042 33.5625 238.76 34.7917 240.906 37.25V20H249.969V68H241.812L241.375 64.4062C239.125 67.2188 236.229 68.625 232.688 68.625C228.708 68.625 225.51 67.0625 223.094 63.9375C220.698 60.7917 219.5 56.4271 219.5 50.8438ZM228.531 51.5C228.531 54.6667 229.083 57.0938 230.188 58.7812C231.292 60.4688 232.896 61.3125 235 61.3125C237.792 61.3125 239.76 60.1354 240.906 57.7812V44.4375C239.781 42.0833 237.833 40.9062 235.062 40.9062C230.708 40.9062 228.531 44.4375 228.531 51.5ZM293.281 52.8438C292.927 57.7396 291.115 61.5938 287.844 64.4062C284.594 67.2188 280.302 68.625 274.969 68.625C269.135 68.625 264.542 66.6667 261.188 62.75C257.854 58.8125 256.188 53.4167 256.188 46.5625V43.7812C256.188 39.4062 256.958 35.5521 258.5 32.2188C260.042 28.8854 262.24 26.3333 265.094 24.5625C267.969 22.7708 271.302 21.875 275.094 21.875C280.344 21.875 284.573 23.2812 287.781 26.0938C290.99 28.9062 292.844 32.8542 293.344 37.9375H283.969C283.74 35 282.917 32.875 281.5 31.5625C280.104 30.2292 277.969 29.5625 275.094 29.5625C271.969 29.5625 269.625 30.6875 268.062 32.9375C266.521 35.1667 265.729 38.6354 265.688 43.3438V46.7812C265.688 51.6979 266.427 55.2917 267.906 57.5625C269.406 59.8333 271.76 60.9688 274.969 60.9688C277.865 60.9688 280.021 60.3125 281.438 59C282.875 57.6667 283.698 55.6146 283.906 52.8438H293.281ZM297.438 50.7812C297.438 47.4271 298.083 44.4375 299.375 41.8125C300.667 39.1875 302.521 37.1562 304.938 35.7188C307.375 34.2812 310.198 33.5625 313.406 33.5625C317.969 33.5625 321.688 34.9583 324.562 37.75C327.458 40.5417 329.073 44.3333 329.406 49.125L329.469 51.4375C329.469 56.625 328.021 60.7917 325.125 63.9375C322.229 67.0625 318.344 68.625 313.469 68.625C308.594 68.625 304.698 67.0625 301.781 63.9375C298.885 60.8125 297.438 56.5625 297.438 51.1875V50.7812ZM306.469 51.4375C306.469 54.6458 307.073 57.1042 308.281 58.8125C309.49 60.5 311.219 61.3438 313.469 61.3438C315.656 61.3438 317.365 60.5104 318.594 58.8438C319.823 57.1562 320.438 54.4688 320.438 50.7812C320.438 47.6354 319.823 45.1979 318.594 43.4688C317.365 41.7396 315.635 40.875 313.406 40.875C311.198 40.875 309.49 41.7396 308.281 43.4688C307.073 45.1771 306.469 47.8333 306.469 51.4375ZM333.625 50.8438C333.625 45.5729 334.802 41.375 337.156 38.25C339.531 35.125 342.771 33.5625 346.875 33.5625C350.167 33.5625 352.885 34.7917 355.031 37.25V20H364.094V68H355.938L355.5 64.4062C353.25 67.2188 350.354 68.625 346.812 68.625C342.833 68.625 339.635 67.0625 337.219 63.9375C334.823 60.7917 333.625 56.4271 333.625 50.8438ZM342.656 51.5C342.656 54.6667 343.208 57.0938 344.312 58.7812C345.417 60.4688 347.021 61.3125 349.125 61.3125C351.917 61.3125 353.885 60.1354 355.031 57.7812V44.4375C353.906 42.0833 351.958 40.9062 349.188 40.9062C344.833 40.9062 342.656 44.4375 342.656 51.5ZM386.656 68.625C381.698 68.625 377.656 67.1042 374.531 64.0625C371.427 61.0208 369.875 56.9688 369.875 51.9062V51.0312C369.875 47.6354 370.531 44.6042 371.844 41.9375C373.156 39.25 375.01 37.1875 377.406 35.75C379.823 34.2917 382.573 33.5625 385.656 33.5625C390.281 33.5625 393.917 35.0208 396.562 37.9375C399.229 40.8542 400.562 44.9896 400.562 50.3438V54.0312H379.031C379.323 56.2396 380.198 58.0104 381.656 59.3438C383.135 60.6771 385 61.3438 387.25 61.3438C390.729 61.3438 393.448 60.0833 395.406 57.5625L399.844 62.5312C398.49 64.4479 396.656 65.9479 394.344 67.0312C392.031 68.0938 389.469 68.625 386.656 68.625ZM385.625 40.875C383.833 40.875 382.375 41.4792 381.25 42.6875C380.146 43.8958 379.438 45.625 379.125 47.875H391.688V47.1562C391.646 45.1562 391.104 43.6146 390.062 42.5312C389.021 41.4271 387.542 40.875 385.625 40.875Z" fill="#718096"/>
</svg>
